<svg id="Layer_2" data-name="Layer 2" xmlns="http://www.w3.org/2000/svg" viewBox="0 0 138 90"><defs><style>.cls-1{fill:#fff;}</style></defs><path class="cls-1" d="M65.4,52.23h.09a7.81,7.81,0,0,1,1.93.46,2,2,0,0,1,1,1,2.79,2.79,0,0,1-1.33,3.91,5.28,5.28,0,0,1-1.75.47,6.29,6.29,0,0,1-3.31-.59,4,4,0,0,1-1.68-1.42,1.42,1.42,0,0,1,.07-1.53,3,3,0,0,1,2.47-.84,10.93,10.93,0,0,1,2.39.44,4.64,4.64,0,0,1,.9.41.33.33,0,0,1,.09.3c-.14.42-1.17.64-1.47.69-.79.12-1.21-.18-2.11-.54a3,3,0,0,0-.75-.2c-.41,0-.91.07-1,.52,0,.23.23.45.44.54a3.36,3.36,0,0,0,1.36.29,7.13,7.13,0,0,0,4.15-1,.63.63,0,0,0,.31-.48c0-.43-.73-.68-.73-.68a11.65,11.65,0,0,0-2.95-.54c-.78-.07-2-.17-2.29-.22a3.3,3.3,0,0,1-.9-.22,1.08,1.08,0,0,1-.59-.68,2.09,2.09,0,0,1,.33-1.6c.77-1.11,2.58-1.53,3.93-1.7a9,9,0,0,1,4.7.53c.19.1.3.2.25.41a1,1,0,0,1-.74.77,8.21,8.21,0,0,1-1.51.19,24.72,24.72,0,0,0-4.89.44,1.09,1.09,0,0,0-.38.16c-.23.25.43.32.57.35l.09,0,3.26.38m-9.2-6.9s.25-.37.46-.66A12.69,12.69,0,0,1,58.26,43l.35-.29-.46.06a3.55,3.55,0,0,0-1.27.72c-.48.41-1,1.07-.77,1.67l.09.19m2.67.72A5.07,5.07,0,0,0,61,45.41c.64-.36,1.6-1.07,1.5-1.9a.72.72,0,0,0-.43-.57,1,1,0,0,0-.81,0,2.24,2.24,0,0,0-.64.27,9.53,9.53,0,0,0-2.37,2.09l-.37.5c-.07.09-.12.16-.11.18a3.15,3.15,0,0,0,1.1.06m-1.93,1.42a3.58,3.58,0,0,0-.25.42.84.84,0,0,1-.19.22.38.38,0,0,1-.55,0,1.32,1.32,0,0,1-.43-1,3.41,3.41,0,0,0,0-.46,3,3,0,0,0-.39-.66,2.7,2.7,0,0,1-.27-1,3.18,3.18,0,0,1,1-2.31,6.63,6.63,0,0,1,2.25-1.54A4.45,4.45,0,0,1,61,40.94a2.25,2.25,0,0,1,.9.61.55.55,0,0,0,.12.14,1.88,1.88,0,0,0,.22.05,2.29,2.29,0,0,1,.86.4,1.61,1.61,0,0,1,.6,1,2.65,2.65,0,0,1-.82,2.23,8,8,0,0,1-3,2,4.76,4.76,0,0,1-1.88.34c-.18,0-.36-.07-.54-.08a3.13,3.13,0,0,1-.44-.11s-.1-.07-.11-.05m1,1.78.14,0a1.21,1.21,0,0,1,.67,1,29.07,29.07,0,0,1,.37,3.91c0,.62,0,1.23.07,1.85a8,8,0,0,1,0,1.7.82.82,0,0,1-.33.49,1.49,1.49,0,0,1-.87.08c-.6-.12-.79-.5-.88-1.09a29.43,29.43,0,0,1,0-5.32,11.43,11.43,0,0,1,.38-2.13c.07-.18.22-.53.47-.48M39.88,51.59s-.89.06-1.5.13a16.28,16.28,0,0,0-3.07.63c-.25.09-.77.31-.81.57a.83.83,0,0,0,.31.69,12.07,12.07,0,0,0,.88.86,15.55,15.55,0,0,0,3.23,2c.36.15,1,.37,1,.37s0-1.73,0-3.43c0-.89,0-1.78,0-1.78m16.23.69A7.52,7.52,0,0,1,56,53.73a7.78,7.78,0,0,1-.27,1,9.93,9.93,0,0,1-.49,1,8.38,8.38,0,0,1-1.39,1.71A11.73,11.73,0,0,1,48,59.69a14.92,14.92,0,0,1-4.41-.13c-.5-.09-1.24-.26-1.24-.26s0,.3,0,.51a3.52,3.52,0,0,1-.13.43.69.69,0,0,1-.53.38,1.65,1.65,0,0,1-.91,0A1.31,1.31,0,0,1,40,59.44c-.06-.4-.13-1.09-.13-1.09L39.24,58a15.85,15.85,0,0,1-2.46-1.51c-.21-.15-1.08-.88-1.27-1.06a7.13,7.13,0,0,1-1.41-1.69A1.6,1.6,0,0,1,34,52.27a4.08,4.08,0,0,1,2.14-1.66,18.24,18.24,0,0,1,2.95-.9,7.36,7.36,0,0,0,.88-.16l0,0s0-.77,0-1,.2-2,.26-2.42a4.37,4.37,0,0,1,.35-1.19.31.31,0,0,1,.43,0c.81.51,1.06,2.25,1.12,3.14,0,.54.05,1.35.05,1.35s.93,0,1.5,0a13.21,13.21,0,0,1,1.74.19,12.63,12.63,0,0,1,3,.85A3.11,3.11,0,0,1,50,51.89a1.57,1.57,0,0,1-.13,1.46,2.08,2.08,0,0,1-1.57,1,2.73,2.73,0,0,1-1.11-.25.19.19,0,0,1,0-.27,4.6,4.6,0,0,1,.55-.31,1.44,1.44,0,0,0,.25-.18c.16-.14.31-.3.29-.48s-.27-.38-.51-.48a18.53,18.53,0,0,0-4.46-.88l-1,0,.13,6,.89.16c.23,0,1.18.12,1.44.12a13.12,13.12,0,0,0,5.88-1,6.09,6.09,0,0,0,2-1.44,4.21,4.21,0,0,0,1-3.11,8.17,8.17,0,0,0-1.73-3.73,20.52,20.52,0,0,0-8-5.63,25.75,25.75,0,0,0-8.92-2,14.48,14.48,0,0,0-3.43.26c-.12,0-.25.08-.37.1a1.55,1.55,0,0,0-.28.12l0,0,.11.05c.09,0,.48.07.69.11a.64.64,0,0,1,.44.26.27.27,0,0,1,0,.33c-.2.24-.95.2-1.29.15s-.77-.16-.85-.46a1.42,1.42,0,0,1,.26-1,2.46,2.46,0,0,1,1.65-1.18,16,16,0,0,1,3.48-.54,20.24,20.24,0,0,1,6.75,1,32.6,32.6,0,0,1,4.2,1.64,32.25,32.25,0,0,1,3.06,1.72c.25.16,1.69,1.22,1.91,1.41.47.38,1.08.93,1.53,1.37a14.31,14.31,0,0,1,2.44,3.19c.12.24.22.49.38.78a5.81,5.81,0,0,1,.33.85c0,.17.1.42.11.43a6,6,0,0,1,.11.79M85.24,51a35.13,35.13,0,0,1-3.94.39l-.36,1.13a15.49,15.49,0,0,1,2.47,0s.33,0,.37.38a7.91,7.91,0,0,1,0,.82s0,.25-.38.32-3.08.17-3.08.17l-.43,1.47s-.16.33.2.24a24.18,24.18,0,0,1,3.51-.54,1,1,0,0,1,.7,1.09c-.15.59-3,2.38-4.66,2.26,0,0-.9.06-1.66-1.16s.27-3.34.27-3.34-.45-1-.12-1.36a1.27,1.27,0,0,1,.75-.22l.69-1.42a1.62,1.62,0,0,1-1.25-.52c-.43-.55-.47-.8-.14-1A23.39,23.39,0,0,1,84,49s.78-.07,1.46,1.28c0,0,.33.55-.23.68M76.8,56.42a1.49,1.49,0,0,1-2,.95c-.93-.45-2.42-3.49-2.42-3.49s-.56-1.13-.67-1.1-.12-.22-.2,1,0,3.64-.47,4a.87.87,0,0,1-1.33-.22,6.72,6.72,0,0,1-.23-3.29c.17-1.83.6-3.77,1.14-4.37a.69.69,0,0,1,1.14,0,12.67,12.67,0,0,1,1.92,2.58l.21.36a16.18,16.18,0,0,0,1.2,1.81s.09.09.17,0,.07-.62.07-.62a35.63,35.63,0,0,0-1.22-5.34,1.58,1.58,0,0,1-.05-.81c.1-.4.5-.21.5-.21A5.32,5.32,0,0,1,76.85,51a9,9,0,0,1,0,5.43m16.5-1.5c-.69,1.22-2.66,3.77-5.28,3.17a26.9,26.9,0,0,0-2,7.39s-.09.62-.6.41a2.91,2.91,0,0,1-1.52-2.19c-.18-1.54.5-4.14,1.9-7.11a4.06,4.06,0,0,1-.45-3,8.64,8.64,0,0,1,2.87-4.75s.3-.26.47-.18.1.89-.05,1.29-1.28,2.33-1.28,2.33a4.41,4.41,0,0,0-.5,2.34c1.32-2,4.32-6.12,6.17-4.83a3,3,0,0,1,.92,2.47,5.55,5.55,0,0,1-.64,2.62m-.54-3.21s-.1-.8-.89.09A19,19,0,0,0,89,55.85a4.7,4.7,0,0,0,2.33-1,3.84,3.84,0,0,0,1.44-3.18m15-.18h-4.8a36.85,36.85,0,0,0-.6-4.86.35.35,0,0,0-.35-.29h-1.11a.33.33,0,0,0-.25.12.37.37,0,0,0-.07.27,34.43,34.43,0,0,1,.62,4.76H96.55a.39.39,0,0,0-.39.39v1a.39.39,0,0,0,.39.39h4.68c0,.25,0,.47,0,.67a33.7,33.7,0,0,1-.21,4,.38.38,0,0,0,.09.29.4.4,0,0,0,.27.12h1a.38.38,0,0,0,.38-.35,37.05,37.05,0,0,0,.2-4v-.67h4.73a.39.39,0,0,0,.39-.39v-1a.39.39,0,0,0-.39-.39"/><path class="cls-1" d="M43.55,38.16a.37.37,0,0,0,0,.34.4.4,0,0,0,.25.24l.86.29.15,0a.49.49,0,0,0,.4-.21A31.3,31.3,0,0,1,71.07,25.12,31.34,31.34,0,0,1,99.93,44.25a.45.45,0,0,0,.42.27h1a.37.37,0,0,0,.3-.16.35.35,0,0,0,0-.33,33.07,33.07,0,0,0-58.16-5.87"/></svg>