<svg id="Layer_2" data-name="Layer 2" xmlns="http://www.w3.org/2000/svg" viewBox="0 0 138 90"><defs><style>.cls-1{fill:#fff;}</style></defs><path class="cls-1" d="M73.29,32.05v4.24h5.32V37.8H73.29V50.3a5.74,5.74,0,0,0,.62,2.94,2.31,2.31,0,0,0,2.14,1,8.79,8.79,0,0,0,1.24-.08,5.26,5.26,0,0,0,.88-.2l.2,1.44a6.27,6.27,0,0,1-2.56.44,4.83,4.83,0,0,1-2.18-.44,3.47,3.47,0,0,1-1.35-1.22,5,5,0,0,1-.7-1.88,12.62,12.62,0,0,1-.2-2.37V37.8H68.22V36.29h3.16V32.77l1.91-.72Zm8.39,4.23,4.4,11.91c.37.93.7,1.81,1,2.63s.58,1.64.84,2.44H88c.27-.77.55-1.58.86-2.42s.65-1.72,1-2.65L94.3,36.28h2L88.67,55.46H87L79.68,36.28Z"/><path class="cls-1" d="M53.36,32.2a5.53,5.53,0,0,1,4.07-2.26,5.56,5.56,0,0,1-1.34,4.15,4.37,4.37,0,0,1-3.86,1.81,4.78,4.78,0,0,1,1.13-3.7Zm-.92,5.18c.88,0,2.51-1.21,4.62-1.21a5.8,5.8,0,0,1,5.08,2.6,5.62,5.62,0,0,0-2.81,4.91A5.77,5.77,0,0,0,62.83,49s-2.44,6.87-5.74,6.87c-1.52,0-2.69-1-4.29-1s-3.24,1.06-4.29,1.06c-3,0-6.81-6.52-6.81-11.76s3.22-7.85,6.24-7.85C49.9,36.25,51.42,37.38,52.44,37.38Z"/></svg>