<svg id="Layer_2" data-name="Layer 2" xmlns="http://www.w3.org/2000/svg" viewBox="0 0 138 90"><defs><style>.cls-1{fill:#fff;}</style></defs><path class="cls-1" d="M56.64,47.78v1.49H50.88V40.73h5.75v1.49H52.72v1.94h3.33V45.6H52.72v2.18Z"/><path class="cls-1" d="M62.26,40.73h2.1L61.91,45l2.52,4.31H62.3l-1.59-3-1.59,3H57L59.52,45l-2.46-4.23h2.11l1.54,2.9Z"/><path class="cls-1" d="M71.76,42.22h-2.6v7.05H67.33V42.22H64.77V40.73h7Z"/><path class="cls-1" d="M79.44,49.18v.09h-2L75.9,46.18H74.57v3.09H72.73V40.73H76a4.34,4.34,0,0,1,1.7.3,2.41,2.41,0,0,1,1.1.87,2.56,2.56,0,0,1,.38,1.41,2.62,2.62,0,0,1-.39,1.49,2.72,2.72,0,0,1-1.13.91ZM74.57,44.7H76a1.39,1.39,0,0,0,1-.33,1.23,1.23,0,0,0,.34-.91,1.19,1.19,0,0,0-.34-.91,1.37,1.37,0,0,0-1-.33H74.57Z"/><path class="cls-1" d="M85.32,47.57h-3l-.55,1.7h-2l3.16-8.54h1.71l3.18,8.54h-2Zm-.5-1.49L83.8,43l-1,3.11Z"/></svg>