<svg id="Layer_2" data-name="Layer 2" xmlns="http://www.w3.org/2000/svg" viewBox="0 0 138 90"><defs><style>.cls-1{fill:#00f4c6;}</style></defs><path class="cls-1" d="M107.93,36.84a.77.77,0,0,0-.43-.42.71.71,0,0,0-.29-.05.78.78,0,0,0-.73.49l-2,5.2-2.05-5.2h0a.14.14,0,0,1,0-.06h0a.79.79,0,0,0-.53-.39h-7a.79.79,0,1,0,0,1.57h2.23V44.2a.79.79,0,1,0,1.57,0V37.94h2.45l2.59,6.55v0h0a.78.78,0,0,0,.57.46h.3a.78.78,0,0,0,.57-.46h0v0l2.78-7.05a.74.74,0,0,0,0-.6m-62.16-.42a2.65,2.65,0,0,0-3.13,2.07L41.5,44.07l-4.18-6.49h0l-.1-.14-.06-.08L37,37.23,36.86,37s0,0-.07,0l-.11-.09-.1-.07-.09-.06-.13-.08,0,0a2.08,2.08,0,0,0-.3-.13l-.13,0-.09,0-.17,0h-.1l-.16,0h-.63l-.15,0-.1,0-.15,0-.1,0-.14.05-.1,0-.14.06-.1.06-.11.06h0l-.11.07-.11.09,0,0a2.81,2.81,0,0,0-.44.48l-.05.06a.75.75,0,0,0-.07.12l-.07.1a.36.36,0,0,1,0,.09,2.44,2.44,0,0,0-.1.24l-.06.15s0,.06,0,.08a1.36,1.36,0,0,0,0,.17v0L30.05,50.43a2.66,2.66,0,0,0,2.07,3.13,2.44,2.44,0,0,0,.53,0,2.65,2.65,0,0,0,2.6-2.12l1.14-5.58,4.18,6.49h0a1.44,1.44,0,0,0,.18.25l.06.06.15.16.08.07a.86.86,0,0,0,.18.14l.05,0,.26.16.05,0,.22.1.09,0,.2.06.1,0,.07,0,.13,0,.1,0,.3,0h.28l.14,0h.07l.14,0,.07,0,.15-.05h.05l.19-.08h0l.18-.1.06,0,.09-.05h0l.17-.12,0,0,.18-.16.06-.07.11-.11.06-.08.09-.12a.56.56,0,0,0,0-.08.57.57,0,0,0,.08-.13.56.56,0,0,0,0-.08l.06-.14,0-.08.06-.15a.24.24,0,0,0,0-.08s0-.1,0-.15a.29.29,0,0,1,0-.09v0l2.44-11.94a2.65,2.65,0,0,0-2.06-3.13M91,36.65a2.75,2.75,0,0,0-3.68,1.24l-2.93,5.89-1.89-5.55,0-.08L82.37,38a.47.47,0,0,0-.05-.1.91.91,0,0,0-.07-.14l-.06-.11a1,1,0,0,1-.08-.11L82,37.43l-.08-.1-.1-.11-.09-.09-.11-.1L81.56,37l-.13-.1a.18.18,0,0,1-.07,0h0l-.14-.08-.1-.06-.13,0-.12-.06-.12,0-.14,0-.12,0-.14,0-.14,0h-.65l-.14,0-.13,0-.12,0-.15,0h0l-.07,0-.15.06-.11,0-.13.07-.11.07-.12.08-.1.08-.11.08-.1.09-.09.1-.1.1-.08.1-.09.13,0,.06L73.79,43.4,73.12,39a2.75,2.75,0,1,0-5.43.84l1.76,11.46s0,.05,0,.08l0,.12,0,.14,0,.1.06.15,0,.09a1,1,0,0,1,.07.15l.05.08a1.09,1.09,0,0,0,.08.15l0,.07.12.16.07.09.13.14.08.07.12.11.08.06.13.1,0,0,.06,0,.08,0,.13.07.07,0a2.05,2.05,0,0,0,.41.16l.07,0,.15,0h.08l.15,0h.72l.18,0h.07a2.11,2.11,0,0,0,.3-.1l.05,0,.24-.1.08,0,.18-.11.09-.06L74,53l.06-.05.21-.22.06-.07.14-.19,0-.05,4.62-7.07,2.19,6.45h0a.85.85,0,0,0,.09.22s0,0,0,.06l.09.17,0,.06.09.15a.43.43,0,0,1,0,.07l.11.13,0,.06.16.17,0,0,.15.13.07,0,.14.1.07,0a.94.94,0,0,0,.22.12h0l.26.11.07,0,.26.08h0l.24,0h.63l.13,0h.08l.13,0,.08,0,.14,0h.06l.23-.09,0,0a.56.56,0,0,0,.17-.09l.06,0,.19-.13,0,0,.15-.12,0,0a2.82,2.82,0,0,0,.33-.36l0,0,.1-.16,0,0,.12-.2,5.86-11.8A2.76,2.76,0,0,0,91,36.65M57.6,36.08A8.92,8.92,0,1,0,66.52,45a8.92,8.92,0,0,0-8.92-8.92"/></svg>