<svg id="Layer_2" data-name="Layer 2" xmlns="http://www.w3.org/2000/svg" viewBox="0 0 138 90"><defs><style>.cls-1{fill:#fff;}</style></defs><path class="cls-1" d="M54,46.53A3.53,3.53,0,0,1,52.88,48l1.39,1.11-1.15,1L51.3,48.62a3.31,3.31,0,0,1-.62.05,3.56,3.56,0,0,1-1.9-.51,3.43,3.43,0,0,1-1.3-1.46A5,5,0,0,1,47,44.48v-.37a5,5,0,0,1,.47-2.23,3.24,3.24,0,0,1,1.29-1.46,3.53,3.53,0,0,1,1.9-.51,3.59,3.59,0,0,1,1.91.51,3.36,3.36,0,0,1,1.29,1.46,5,5,0,0,1,.46,2.23v.37A5.28,5.28,0,0,1,54,46.53Zm-4.61-.06a1.54,1.54,0,0,0,1.34.7,1.52,1.52,0,0,0,1.33-.7,3.6,3.6,0,0,0,.46-2v-.39a3.43,3.43,0,0,0-.47-2,1.63,1.63,0,0,0-2.66,0,3.55,3.55,0,0,0-.46,2v.39A3.6,3.6,0,0,0,49.34,46.47Z"/><path class="cls-1" d="M67.58,48.55H65.74v-2.2l.18-4.08-2.24,6.28H62.43L60.2,42.27l.18,4.08v2.2H58.54V40H61l2.11,6.09L65.17,40h2.41Z"/><path class="cls-1" d="M74.82,47.07v1.48H69.06V40h5.76v1.49H70.9v1.94h3.34v1.44H70.9v2.18Z"/><path class="cls-1" d="M81,48.55l-3.31-5.5v5.5H75.81V40h1.84L81,45.52V40H82.8v8.53Z"/><path class="cls-1" d="M90.79,45.63a3.09,3.09,0,0,1-.41,1.65,2.72,2.72,0,0,1-1.16,1,4,4,0,0,1-1.71.35,4.08,4.08,0,0,1-1.73-.35,2.66,2.66,0,0,1-1.16-1,3.09,3.09,0,0,1-.42-1.65V40h1.85v5.61c0,1,.48,1.56,1.46,1.56a1.42,1.42,0,0,0,1.07-.38A1.61,1.61,0,0,0,89,45.63V40h1.84Z"/></svg>