<svg id="Layer_2" data-name="Layer 2" xmlns="http://www.w3.org/2000/svg" viewBox="0 0 138 90"><defs><style>.cls-1{font-size:12px;font-family:Heebo-Bold, Heebo;font-weight:700;}.cls-1,.cls-2{fill:#fff;}</style></defs><text class="cls-1" transform="translate(65.55 78.33)">1</text><path class="cls-2" d="M79.21,38.69a3.9,3.9,0,0,1,3.89,3.69L82.16,47l0,.23v.23c0,1.57-4.13,3.9-6.9,3.9H62.79c-2.77,0-6.9-2.33-6.9-3.9v-.23l0-.23-.94-4.57a3.9,3.9,0,0,1,3.89-3.69H79.21m0-2.26H58.79a6.18,6.18,0,0,0-6.17,6.16l1,4.82c0,3.39,5.78,6.16,9.17,6.16H75.21c3.39,0,9.17-2.77,9.17-6.16l1-4.82a6.18,6.18,0,0,0-6.17-6.16Z"/><circle class="cls-2" cx="78.46" cy="42.35" r="1.13"/><circle class="cls-2" cx="75.13" cy="42.35" r="1.13"/><circle class="cls-2" cx="71.8" cy="42.35" r="1.13"/><circle class="cls-2" cx="68.47" cy="42.35" r="1.13"/><circle class="cls-2" cx="78.46" cy="46.53" r="1.13"/><circle class="cls-2" cx="75.13" cy="46.53" r="1.13"/><circle class="cls-2" cx="71.8" cy="46.53" r="1.13"/><circle class="cls-2" cx="68.47" cy="46.53" r="1.13"/><path class="cls-2" d="M63.41,44.72a1,1,0,0,0-1-1H59.62a1,1,0,0,0-1,1,1,1,0,0,0,.22.64,1,1,0,0,0,.76.38h2.81A1,1,0,0,0,63.41,44.72Z"/></svg>