<svg id="Layer_2" data-name="Layer 2" xmlns="http://www.w3.org/2000/svg" viewBox="0 0 138 90"><defs><style>.cls-1{font-size:12px;font-family:Heebo-Bold, Heebo;font-weight:700;}.cls-1,.cls-3{fill:#fff;}.cls-2{letter-spacing:-0.04em;}.cls-4{fill:#009245;}</style></defs><text class="cls-1" transform="translate(47.04 78.33)"><tspan class="cls-2">T</tspan><tspan x="7" y="0">reble +</tspan></text><path class="cls-3" d="M57.12,60.75a2.5,2.5,0,0,1-2.5-2.5V31.75a2.5,2.5,0,0,1,5,0v26.5A2.49,2.49,0,0,1,57.12,60.75Z"/><path class="cls-3" d="M80.88,60.75a2.49,2.49,0,0,1-2.5-2.5V31.75a2.5,2.5,0,0,1,5,0v26.5A2.5,2.5,0,0,1,80.88,60.75Z"/><path class="cls-3" d="M69.12,60.75a2.5,2.5,0,0,1-2.5-2.5V31.75a2.5,2.5,0,0,1,5,0v26.5A2.49,2.49,0,0,1,69.12,60.75Z"/><circle class="cls-4" cx="80.88" cy="37.92" r="3.87"/></svg>