<svg id="Layer_2" data-name="Layer 2" xmlns="http://www.w3.org/2000/svg" viewBox="0 0 138 90"><defs><style>.cls-1{fill:#fff;}</style></defs><path class="cls-1" d="M40.58,45.08a2.88,2.88,0,0,1-1-.85A2.06,2.06,0,0,1,39.2,43a2,2,0,0,1,.41-1.25,2.65,2.65,0,0,1,1.13-.84,4.46,4.46,0,0,1,1.65-.29A3.84,3.84,0,0,1,44,41a2.55,2.55,0,0,1,1.11.93,2.47,2.47,0,0,1,.39,1.37H43.7a1.12,1.12,0,0,0-.34-.85,1.41,1.41,0,0,0-1-.32,1.94,1.94,0,0,0-.72.12,1,1,0,0,0-.44.34A.8.8,0,0,0,41,43a.78.78,0,0,0,.4.67,4.87,4.87,0,0,0,1.26.53,5.48,5.48,0,0,1,2.13,1.1,2.22,2.22,0,0,1,.7,1.69,2.09,2.09,0,0,1-.38,1.28,2.33,2.33,0,0,1-1.08.82,4.33,4.33,0,0,1-1.64.28,4.58,4.58,0,0,1-1.7-.31,2.87,2.87,0,0,1-1.29-1,2.5,2.5,0,0,1-.5-1.57h1.85a1.23,1.23,0,0,0,.42,1.05,2,2,0,0,0,1.22.33,1.47,1.47,0,0,0,.94-.25.79.79,0,0,0,.32-.66.88.88,0,0,0-.13-.51,1.21,1.21,0,0,0-.47-.4,6.36,6.36,0,0,0-1-.4A8.78,8.78,0,0,1,40.58,45.08Z"/><path class="cls-1" d="M53.68,40.73v8.54H51.85V45.64H48.53v3.63H46.69V40.73h1.84v3.43h3.32V40.73Z"/><path class="cls-1" d="M61.77,47.41a3.41,3.41,0,0,1-1.29,1.46,3.81,3.81,0,0,1-3.81,0,3.37,3.37,0,0,1-1.3-1.46,5,5,0,0,1-.46-2.22v-.37a5,5,0,0,1,.46-2.23,3.41,3.41,0,0,1,1.29-1.46,3.81,3.81,0,0,1,3.81,0,3.41,3.41,0,0,1,1.29,1.46,5,5,0,0,1,.47,2.23v.37A5.11,5.11,0,0,1,61.77,47.41Zm-1.88-4.59a1.5,1.5,0,0,0-1.33-.69,1.53,1.53,0,0,0-1.33.68,3.67,3.67,0,0,0-.46,2v.38a3.59,3.59,0,0,0,.47,2,1.53,1.53,0,0,0,1.34.7,1.51,1.51,0,0,0,1.32-.7,3.6,3.6,0,0,0,.46-2v-.38A3.46,3.46,0,0,0,59.89,42.82Z"/><path class="cls-1" d="M73,40.73l-1.87,8.54H69.28L68,43.72l-1.32,5.55H64.78L62.9,40.73h1.83l1.11,5.93,1.34-5.93h1.56l1.34,5.93,1.11-5.93Z"/><path class="cls-1" d="M83,49.27H81.12V47.06L81.3,43l-2.23,6.29H77.82L75.59,43l.18,4.08v2.21H73.93V40.73h2.41l2.11,6.09,2.1-6.09H83Z"/><path class="cls-1" d="M89.28,47.57h-3l-.56,1.7h-2l3.17-8.54h1.71l3.18,8.54h-2Zm-.49-1.49-1-3.11-1,3.11Z"/><path class="cls-1" d="M97.18,40.73h2.11L96.83,45l2.52,4.31H97.22l-1.58-3-1.59,3H91.92L94.44,45,92,40.73H94.1l1.54,2.9Z"/></svg>