<svg id="Layer_2" data-name="Layer 2" xmlns="http://www.w3.org/2000/svg" viewBox="0 0 138 90"><defs><style>.cls-1{fill:#fff;}</style></defs><path class="cls-1" d="M51.26,47.57h-3l-.56,1.7h-2l3.17-8.54H50.6l3.18,8.54h-2Zm-.49-1.49-1-3.11-1,3.11Z"/><path class="cls-1" d="M59.69,49.27l-3.32-5.51v5.51H54.53V40.73h1.84l3.32,5.51V40.73h1.83v8.54Z"/><path class="cls-1" d="M67.71,40.73h2l-2.79,5.45v3.09H65.06V46.18l-2.79-5.45h2L66,44.53Z"/><path class="cls-1" d="M75.61,49.27l-3.32-5.51v5.51H70.45V40.73h1.84l3.32,5.51V40.73h1.83v8.54Z"/><path class="cls-1" d="M84.68,47.78v1.49H78.92V40.73h5.75v1.49H80.76v1.94h3.33V45.6H80.76v2.18Z"/><path class="cls-1" d="M92.28,42.22H89.67v7.05H87.84V42.22H85.28V40.73h7Z"/></svg>