<svg id="Layer_2" data-name="Layer 2" xmlns="http://www.w3.org/2000/svg" viewBox="0 0 138 90"><defs><style>.cls-1{font-size:12px;fill:#fff;font-family:Heebo-Bold, Heebo;font-weight:700;}.cls-2{opacity:0.7;}.cls-3{fill:#f2f2f2;}</style></defs><text class="cls-1" transform="translate(61.65 78.33)">3D</text><g class="cls-2"><path class="cls-3" d="M51,46.73V34.64a8.33,8.33,0,0,1,5.26-7.18l12.1-4.41c2.9-1.05,5.26.45,5.26,3.35V38.5a8.35,8.35,0,0,1-5.26,7.18l-12.1,4.4C53.35,51.14,51,49.64,51,46.73Zm5.26-16.35a3.71,3.71,0,0,0-2.34,3.19v12.1a1.59,1.59,0,0,0,2.34,1.49l12.1-4.41a3.69,3.69,0,0,0,2.34-3.19V27.47A1.59,1.59,0,0,0,68.35,26Z"/></g><path class="cls-3" d="M64.39,51.79V39.69a8.35,8.35,0,0,1,5.26-7.18l12.1-4.4c2.9-1.06,5.26.45,5.26,3.35v12.1a8.35,8.35,0,0,1-5.26,7.18l-12.1,4.4C66.75,56.2,64.39,54.69,64.39,51.79Zm5.26-16.35a3.71,3.71,0,0,0-2.34,3.19v12.1a1.58,1.58,0,0,0,2.34,1.48l12.1-4.4a3.71,3.71,0,0,0,2.34-3.19V32.52A1.58,1.58,0,0,0,81.75,31Z"/></svg>