<svg id="Layer_2" data-name="Layer 2" xmlns="http://www.w3.org/2000/svg" viewBox="0 0 138 90"><defs><style>.cls-1{fill:red;}.cls-2{fill:#fff;}</style></defs><path class="cls-1" d="M53.78,38.79a3.23,3.23,0,0,0-2.28-2.27C49.48,36,41.4,36,41.4,36s-8.07,0-10.09.54A3.29,3.29,0,0,0,29,38.79a36.65,36.65,0,0,0,0,12.42,3.23,3.23,0,0,0,2.28,2.27c2,.56,10.09.56,10.09.56s8.08,0,10.1-.54a3.23,3.23,0,0,0,2.28-2.27A34.19,34.19,0,0,0,54.31,45,32.55,32.55,0,0,0,53.78,38.79Z"/><polygon class="cls-2" points="38.83 48.87 45.55 45 38.83 41.13 38.83 48.87"/><path class="cls-2" d="M66,52.42A2.73,2.73,0,0,1,64.9,50.8a10.34,10.34,0,0,1-.32-2.89V46.28a10.17,10.17,0,0,1,.36-2.94,3,3,0,0,1,1.15-1.61,3.74,3.74,0,0,1,2.06-.51,3.6,3.6,0,0,1,2,.51,2.92,2.92,0,0,1,1.1,1.61,9.57,9.57,0,0,1,.37,2.94v1.63a10.16,10.16,0,0,1-.34,2.92,3,3,0,0,1-1.11,1.61,3.72,3.72,0,0,1-2.08.51A4,4,0,0,1,66,52.42Zm2.87-1.79a5.24,5.24,0,0,0,.21-1.8V45.3a5.32,5.32,0,0,0-.21-1.79.74.74,0,0,0-.74-.55.75.75,0,0,0-.73.55,5.59,5.59,0,0,0-.21,1.79v3.53a5.5,5.5,0,0,0,.21,1.8.75.75,0,0,0,.75.56A.73.73,0,0,0,68.85,50.63Z"/><path class="cls-2" d="M105.23,47.93v.58a16.22,16.22,0,0,0,.06,1.63,1.33,1.33,0,0,0,.28.79.73.73,0,0,0,.63.26.8.8,0,0,0,.79-.45,4.06,4.06,0,0,0,.24-1.49l2.18.13a1.55,1.55,0,0,1,0,.4,3,3,0,0,1-.85,2.34,3.56,3.56,0,0,1-2.43.77,2.91,2.91,0,0,1-2.63-1.19,6.85,6.85,0,0,1-.77-3.66v-2a6.79,6.79,0,0,1,.79-3.72,3,3,0,0,1,2.68-1.17,3.59,3.59,0,0,1,2,.49,2.63,2.63,0,0,1,1,1.49A11,11,0,0,1,109.5,46v1.93h-4.27Zm.32-4.76a1.59,1.59,0,0,0-.26.79,16.5,16.5,0,0,0-.06,1.66v.8h1.87v-.8A13.88,13.88,0,0,0,107,44a1.45,1.45,0,0,0-.27-.79.77.77,0,0,0-.6-.23A.63.63,0,0,0,105.55,43.17Z"/><path class="cls-2" d="M59.77,47.72,56.88,37.24h2.53l1,4.74c.26,1.17.45,2.17.58,3h.06c.09-.6.28-1.57.57-3l1.07-4.76h2.53L62.3,47.72v5H59.79v-5Z"/><path class="cls-2" d="M79.86,41.43V52.76h-2l-.22-1.38h-.06A2.62,2.62,0,0,1,75.14,53a1.92,1.92,0,0,1-1.65-.74A3.87,3.87,0,0,1,73,49.89V41.43h2.56v8.31a2.59,2.59,0,0,0,.17,1.09.56.56,0,0,0,.55.31,1.11,1.11,0,0,0,.64-.21,1,1,0,0,0,.44-.51v-9Z"/><path class="cls-2" d="M92.94,41.43V52.76h-2l-.21-1.38h-.07A2.61,2.61,0,0,1,88.22,53a1.92,1.92,0,0,1-1.66-.74A4,4,0,0,1,86,49.89V41.43h2.55v8.31a2.59,2.59,0,0,0,.17,1.09.57.57,0,0,0,.55.31,1.06,1.06,0,0,0,.64-.21,1.11,1.11,0,0,0,.45-.51v-9Z"/><path class="cls-2" d="M86.79,39.3H84.26V52.74H81.78V39.3H79.25V37.24h7.54Z"/><path class="cls-2" d="M101.38,43.24a2.89,2.89,0,0,0-.75-1.56,2,2,0,0,0-1.42-.49,2.29,2.29,0,0,0-1.32.41,2.53,2.53,0,0,0-.93,1h0v-6H94.47V52.74h2.1l.26-1.06h.06a2.13,2.13,0,0,0,.9.91,2.74,2.74,0,0,0,1.31.34,2,2,0,0,0,1.9-1.19,8.67,8.67,0,0,0,.61-3.72V46.23A16.82,16.82,0,0,0,101.38,43.24ZM99,47.85a13.44,13.44,0,0,1-.11,1.93,2.1,2.1,0,0,1-.34,1,.83.83,0,0,1-.63.3,1,1,0,0,1-.58-.15,1.11,1.11,0,0,1-.42-.44V44.06a1.71,1.71,0,0,1,.44-.76,1.06,1.06,0,0,1,.68-.3.7.7,0,0,1,.6.3,2.48,2.48,0,0,1,.3,1,18.22,18.22,0,0,1,.08,2v1.49Z"/></svg>