<svg id="Layer_2" data-name="Layer 2" xmlns="http://www.w3.org/2000/svg" viewBox="0 0 138 90"><defs><style>.cls-1{fill:#fff;fill-rule:evenodd;}</style></defs><path class="cls-1" d="M82.14,43h6a1.52,1.52,0,0,1,1.3.75l5.88,7.75H83.24c-1.13,0-1.8-.48-1.8-1.35V43.6c0-.39.3-.58.7-.58M32,39.37V50.44c0,.78.22,1,1.19,1h3c4.84,0,9.76-2.84,8.64-7.67C44,40,40,38.6,36.42,38.6H32.58C32.12,38.6,32,39,32,39.37ZM26.3,36.82H38.64c12.12,0,17.62,7.82,10.43,13.7-.74.61-.9.9,0,.9H62.17c2.94,0,3.16-2.09,1.21-3.23-2.86-1.67-6-2.54-8.37-4.39-4.1-3.14-1.29-7,6-7H80.08c1,0,1.43.42,1.43,1.14v2.58c0,.71.27.71,1.1.71H94.47a1.77,1.77,0,0,1,1.45,1l6.1,8.79c.42.59.48.65,1-.07l6.65-8.9a1.69,1.69,0,0,1,1.44-.73H113l-8.64,11.55c-.31.42-.77.45-1.33.45H79.25c-4.53,0-5-1.59-5-4.62v-8.9c0-.79-.28-1-1-1H64c-2.8,0-4.44,1.75-1.65,3.35,3.11,1.77,6.31,2,8.87,4.86,3.32,3.71-.54,6.36-7.18,6.36H26.59c-1.8,0-1.58-1-1.58-2.2V38.22C25,37.14,25.62,36.82,26.3,36.82Z"/></svg>