<svg id="Layer_2" data-name="Layer 2" xmlns="http://www.w3.org/2000/svg" viewBox="0 0 138 90"><defs><style>.cls-1{fill:none;}.cls-2{fill:#fff;}</style></defs><path class="cls-1" d="M58.55,29.67A19.6,19.6,0,1,0,86.81,54.85l-17.49-8.8L85.7,35.29A19.62,19.62,0,0,0,58.55,29.67Z"/><path class="cls-2" d="M80.08,62.44A19.6,19.6,0,1,1,85.7,35.29l2-1.32a22,22,0,1,0,1.27,22l-2.16-1.08A19.48,19.48,0,0,1,80.08,62.44Z"/><path class="cls-2" d="M87.72,29.27,86.6,34.66l-5.39-1.12a.71.71,0,0,0-.83.55v.06a.69.69,0,0,0,.55.82L87,36.23h.06a.7.7,0,0,0,.83-.54v-.1l1.25-6a.71.71,0,0,0-.55-.83h0A.7.7,0,0,0,87.72,29.27Z"/></svg>