<svg id="Layer_2" data-name="Layer 2" xmlns="http://www.w3.org/2000/svg" viewBox="0 0 138 90"><defs><style>.cls-1{fill:#fff;}</style></defs><rect class="cls-1" x="67.5" y="25.39" width="2.84" height="7.84" rx="1.42" transform="translate(0.04 -0.1) rotate(0.08)"/><rect class="cls-1" x="78.61" y="29.93" width="2.84" height="7.84" rx="1.42" transform="translate(47.49 -46.72) rotate(45.08)"/><rect class="cls-1" x="83.27" y="41" width="2.84" height="7.84" rx="1.42" transform="translate(129.73 -39.7) rotate(90.08)"/><rect class="cls-1" x="78.73" y="52.11" width="2.84" height="7.84" rx="1.42" transform="translate(176.47 39.12) rotate(135.08)"/><rect class="cls-1" x="67.66" y="56.76" width="2.84" height="7.84" rx="1.42" transform="translate(138.08 121.47) rotate(-179.92)"/><rect class="cls-1" x="56.55" y="52.23" width="2.84" height="7.84" rx="1.42" transform="translate(59.14 136.84) rotate(-134.92)"/><rect class="cls-1" x="51.9" y="41.16" width="2.84" height="7.84" rx="1.42" transform="translate(8.16 98.33) rotate(-89.92)"/><rect class="cls-1" x="56.43" y="30.05" width="2.84" height="7.84" rx="1.42" transform="translate(-7.1 50.76) rotate(-44.92)"/><circle class="cls-1" cx="69" cy="45" r="8.26"/></svg>