<svg id="Layer_2" data-name="Layer 2" xmlns="http://www.w3.org/2000/svg" viewBox="0 0 138 90"><defs><style>.cls-1,.cls-3{fill:#fff;}.cls-2{fill:#f2f2f2;}.cls-3{font-size:12px;font-family:Heebo-Bold, Heebo;font-weight:700;}.cls-4{letter-spacing:-0.01em;}</style></defs><path class="cls-1" d="M62.4,32.83a3.74,3.74,0,0,1,3.74,3.74V53.43a3.74,3.74,0,0,1-3.74,3.74H53.92a3.75,3.75,0,0,1-3.74-3.74V36.57a3.75,3.75,0,0,1,3.74-3.74H62.4m0-2.37H53.92a6.13,6.13,0,0,0-6.11,6.11V53.43a6.13,6.13,0,0,0,6.11,6.11H62.4a6.13,6.13,0,0,0,6.11-6.11V36.57a6.13,6.13,0,0,0-6.11-6.11Z"/><rect class="cls-1" x="53.68" y="45.82" width="8.96" height="7.6" rx="2.05"/><rect class="cls-1" x="54.91" y="36.99" width="6.5" height="4.63" rx="1.37"/><path class="cls-2" d="M89.6,43.58h0l-.12-.12-8.63-9.63a2,2,0,0,0-2.85,0l-.12.12a2,2,0,0,0,0,2.85l4.77,5.77H66.14v5H82.53l-4.66,5.67a2,2,0,0,0,0,2.85l.11.12a2,2,0,0,0,2.86,0l8.55-9.55.09-.08.12-.12A2,2,0,0,0,89.6,43.58Z"/><text class="cls-3" transform="translate(36.44 78.33)"><tspan class="cls-4">A</tspan><tspan x="8.04" y="0">udio Mode</tspan></text></svg>