<svg id="Layer_2" data-name="Layer 2" xmlns="http://www.w3.org/2000/svg" viewBox="0 0 138 90"><defs><style>.cls-1,.cls-2{fill:#fff;}.cls-2{font-size:12px;font-family:Heebo-Bold, Heebo;font-weight:700;}.cls-3{letter-spacing:0.01em;}</style></defs><path class="cls-1" d="M55.29,42.56a4.22,4.22,0,0,1,4.22-4.21h19a4.22,4.22,0,0,1,4.22,4.21v9.56a4.22,4.22,0,0,1-4.22,4.21h-19a4.22,4.22,0,0,1-4.22-4.21V42.56m-2.67,0v9.56A6.91,6.91,0,0,0,59.51,59h19a6.91,6.91,0,0,0,6.89-6.88V42.56a6.91,6.91,0,0,0-6.89-6.88h-19a6.91,6.91,0,0,0-6.89,6.88Z"/><path class="cls-1" d="M76,30.23a1,1,0,0,0-1.41.13l-5,6a1,1,0,0,0,.13,1.41,1,1,0,0,0,.64.23,1,1,0,0,0,.77-.36l5-6A1,1,0,0,0,76,30.23Z"/><path class="cls-1" d="M63.12,30.36a1,1,0,1,0-1.54,1.28l5,6a1,1,0,0,0,.77.36,1,1,0,0,0,.64-.23,1,1,0,0,0,.13-1.41Z"/><text class="cls-2" transform="translate(57.38 78.33)">D<tspan class="cls-3" x="7.79" y="0">T</tspan><tspan x="15.36" y="0">V</tspan></text></svg>