<svg id="Layer_2" data-name="Layer 2" xmlns="http://www.w3.org/2000/svg" viewBox="0 0 138 90"><defs><style>.cls-1{fill:#f2f2f2;}.cls-2{opacity:0.4;}</style></defs><path class="cls-1" d="M36.31,58.27V31.73a7.2,7.2,0,0,1,7.2-7.19H60a7.2,7.2,0,0,1,7.2,7.19V58.27A7.2,7.2,0,0,1,60,65.46H43.51A7.2,7.2,0,0,1,36.31,58.27ZM63.24,31.73A3.2,3.2,0,0,0,60,28.54H43.51a3.19,3.19,0,0,0-3.2,3.19V58.27a3.19,3.19,0,0,0,3.2,3.19H60a3.2,3.2,0,0,0,3.2-3.19Z"/><g class="cls-2"><path class="cls-1" d="M70.76,58.27V31.73A7.2,7.2,0,0,1,78,24.54H94.49a7.2,7.2,0,0,1,7.2,7.19V58.27a7.2,7.2,0,0,1-7.2,7.19H78A7.2,7.2,0,0,1,70.76,58.27ZM97.69,31.73a3.19,3.19,0,0,0-3.2-3.19H78a3.2,3.2,0,0,0-3.2,3.19V58.27A3.2,3.2,0,0,0,78,61.46H94.49a3.19,3.19,0,0,0,3.2-3.19Z"/></g></svg>