<svg id="Layer_2" data-name="Layer 2" xmlns="http://www.w3.org/2000/svg" viewBox="0 0 138 90"><defs><style>.cls-1,.cls-3{fill:#fff;}.cls-2{fill:#009245;}.cls-3{font-size:12px;font-family:Heebo-Bold, Heebo;font-weight:700;}.cls-4{letter-spacing:-0.06em;}</style></defs><path class="cls-1" d="M84.75,56.88a2.5,2.5,0,0,1-2.5,2.5H55.75a2.5,2.5,0,0,1,0-5h26.5A2.49,2.49,0,0,1,84.75,56.88Z"/><path class="cls-2" d="M84.75,33.12a2.49,2.49,0,0,1-2.5,2.5H55.75a2.5,2.5,0,0,1,0-5h26.5A2.5,2.5,0,0,1,84.75,33.12Z"/><path class="cls-1" d="M84.75,44.88a2.5,2.5,0,0,1-2.5,2.5H55.75a2.5,2.5,0,0,1,0-5h26.5A2.49,2.49,0,0,1,84.75,44.88Z"/><text class="cls-3" transform="translate(58.85 78.33)"><tspan class="cls-4">T</tspan><tspan x="6.75" y="0">op</tspan></text></svg>