<svg id="Layer_2" data-name="Layer 2" xmlns="http://www.w3.org/2000/svg" viewBox="0 0 138 90"><defs><style>.cls-1{fill:#f2f2f2;}.cls-2{fill:#fff;}</style></defs><path class="cls-1" d="M87.27,60.46H50.73a7.19,7.19,0,0,1-7.19-7.19V36.73a7.19,7.19,0,0,1,7.19-7.19H87.27a7.19,7.19,0,0,1,7.19,7.19V53.27A7.19,7.19,0,0,1,87.27,60.46ZM50.73,33.54a3.19,3.19,0,0,0-3.19,3.19V53.27a3.19,3.19,0,0,0,3.19,3.19H87.27a3.19,3.19,0,0,0,3.19-3.19V36.73a3.19,3.19,0,0,0-3.19-3.19Z"/><path class="cls-1" d="M53.3,42l0-3.72H57a.48.48,0,0,0,.47-.48v0A.47.47,0,0,0,57,37.3l-4.19,0h0a.48.48,0,0,0-.48.47V42a.47.47,0,0,0,.47.47h0A.48.48,0,0,0,53.3,42Z"/><path class="cls-1" d="M84.85,48.48V52.2H81.14a.48.48,0,0,0-.47.48v0a.48.48,0,0,0,.48.47h4.23a.48.48,0,0,0,.47-.48v-.07l0-4.16a.47.47,0,0,0-.47-.47h0A.47.47,0,0,0,84.85,48.48Z"/><path class="cls-2" d="M59.91,49.27V42.82l-2,.61V42l3.59-1.27h.18v8.54Z"/><path class="cls-2" d="M69.23,43.92a2.39,2.39,0,0,1,.82,1,3.69,3.69,0,0,1,.28,1.48A3.14,3.14,0,0,1,70,48a2.58,2.58,0,0,1-1,1,3.16,3.16,0,0,1-3.11,0,2.81,2.81,0,0,1-1.07-1.19A4.06,4.06,0,0,1,64.39,46V45.3a5.37,5.37,0,0,1,.54-2.46,3.85,3.85,0,0,1,1.54-1.63,4.45,4.45,0,0,1,2.31-.58H69v1.46h-.11a3,3,0,0,0-1.87.56,2.33,2.33,0,0,0-.86,1.59,2.34,2.34,0,0,1,.75-.52,2.49,2.49,0,0,1,1-.18A2.26,2.26,0,0,1,69.23,43.92ZM68,47.76a1.3,1.3,0,0,0,.41-.53,1.89,1.89,0,0,0,.15-.77,2,2,0,0,0-.15-.79,1.25,1.25,0,0,0-.43-.53,1.14,1.14,0,0,0-.64-.18,1.35,1.35,0,0,0-.73.2,1.3,1.3,0,0,0-.46.53v.53a2.17,2.17,0,0,0,.33,1.3,1.06,1.06,0,0,0,.9.44A1,1,0,0,0,68,47.76Z"/><path class="cls-2" d="M73,42.83a.82.82,0,0,1,.35.34.93.93,0,0,1,0,.95.88.88,0,0,1-.35.34,1.11,1.11,0,0,1-.52.12,1.08,1.08,0,0,1-.52-.12.88.88,0,0,1-.35-.34,1,1,0,0,1-.12-.48.94.94,0,0,1,.12-.47.82.82,0,0,1,.35-.34,1.08,1.08,0,0,1,.52-.12A1.11,1.11,0,0,1,73,42.83Zm0,4.75a.88.88,0,0,1,.35.34.93.93,0,0,1,0,.95.82.82,0,0,1-.35.34,1.11,1.11,0,0,1-.52.12,1.08,1.08,0,0,1-.52-.12.82.82,0,0,1-.35-.34.94.94,0,0,1-.12-.47,1,1,0,0,1,.12-.48.88.88,0,0,1,.35-.34,1.08,1.08,0,0,1,.52-.12A1.11,1.11,0,0,1,73,47.58Z"/><path class="cls-2" d="M79.08,41a2.73,2.73,0,0,1,1,1.21,4.3,4.3,0,0,1,.37,1.85v.63A5.57,5.57,0,0,1,80,47.21a3.69,3.69,0,0,1-1.5,1.6,4.79,4.79,0,0,1-2.38.56H76V47.89h.12a3,3,0,0,0,1.87-.5,2,2,0,0,0,.75-1.5,2.3,2.3,0,0,1-.7.46,2.11,2.11,0,0,1-.82.17,2.34,2.34,0,0,1-1.34-.37,2.24,2.24,0,0,1-.86-1,3.55,3.55,0,0,1-.3-1.5A3.14,3.14,0,0,1,75,42.12a2.75,2.75,0,0,1,2.52-1.51A2.78,2.78,0,0,1,79.08,41Zm-.81,4a1.29,1.29,0,0,0,.44-.49v-.73a2.18,2.18,0,0,0-.32-1.28,1,1,0,0,0-.84-.45.88.88,0,0,0-.59.23,1.45,1.45,0,0,0-.39.59,2.19,2.19,0,0,0-.13.77,1.91,1.91,0,0,0,.3,1.11,1,1,0,0,0,.87.43A1.21,1.21,0,0,0,78.27,45Z"/></svg>