<svg id="Layer_2" data-name="Layer 2" xmlns="http://www.w3.org/2000/svg" viewBox="0 0 138 90"><defs><style>.cls-1{fill:#d1effa;}.cls-2{fill:#00a8e1;}.cls-3{fill:#fff;}</style></defs><g id="Layer_2-2" data-name="Layer 2"><g id="Ebene_1" data-name="Ebene 1"><path class="cls-1" d="M68.64,59.28v0a.19.19,0,0,1,.17-.07c.28,0,.56,0,.85,0a.22.22,0,0,1,.17.07v0Z"/><path class="cls-2" d="M69.83,59.24c-.4,0-.8,0-1.19,0L67,59.15a28.52,28.52,0,0,1-4.32-.66,29.18,29.18,0,0,1-13-6.74c-.35-.31-.68-.63-1-1a.74.74,0,0,1-.19-.27.36.36,0,0,1,.47-.48,1.42,1.42,0,0,1,.25.12A38.62,38.62,0,0,0,60.84,55a41.65,41.65,0,0,0,4.16.75A38.07,38.07,0,0,0,71,56a31.92,31.92,0,0,0,3.24-.27A39.67,39.67,0,0,0,81.68,54a34,34,0,0,0,3.71-1.46.84.84,0,0,1,.6-.08.62.62,0,0,1,.45.75.69.69,0,0,1,0,.13,1.1,1.1,0,0,1-.33.38,22.36,22.36,0,0,1-3.69,2.34,29.15,29.15,0,0,1-7.81,2.64A34,34,0,0,1,69.83,59.24Z"/><path class="cls-2" d="M55.06,39c.25-.15.51-.31.78-.45a4.54,4.54,0,0,1,2.26-.5,2,2,0,0,1,2,2c0,.11,0,.22,0,.34v5.17c0,.45-.06.5-.51.5H58.19a.26.26,0,0,1-.24-.22,1.83,1.83,0,0,1,0-.33V40.9a1.69,1.69,0,0,0-.06-.55.75.75,0,0,0-.68-.55,3.51,3.51,0,0,0-1.71.33.16.16,0,0,0-.12.18v5.25a1.42,1.42,0,0,1,0,.29.23.23,0,0,1-.25.23H53.57c-.37,0-.45-.08-.45-.45V40.92a2.29,2.29,0,0,0,0-.52.74.74,0,0,0-.69-.6,3.52,3.52,0,0,0-1.75.34.16.16,0,0,0-.11.19v5.32c0,.37-.08.44-.45.44H48.74c-.35,0-.44-.09-.44-.43V38.73a1,1,0,0,1,0-.24.29.29,0,0,1,.28-.19h1.24a.36.36,0,0,1,.35.28c0,.14.08.27.13.42s.16-.07.23-.11a5.19,5.19,0,0,1,1.78-.75,4.15,4.15,0,0,1,1.49,0,1.87,1.87,0,0,1,1.16.78l.06.07S55.05,39,55.06,39Z"/><path class="cls-3" d="M75.74,44l.18-.59c.46-1.54.92-3.08,1.37-4.63l.06-.18a.41.41,0,0,1,.4-.29h1.52c.38,0,.46.11.33.47L79,40.36c-.67,1.73-1.34,3.48-2,5.22l-.07.18a.48.48,0,0,1-.5.32H75.11a.56.56,0,0,1-.6-.4l-.76-2c-.6-1.57-1.2-3.13-1.8-4.71a1.79,1.79,0,0,1-.13-.39c0-.2,0-.3.24-.3h1.69c.24,0,.35.16.41.37.11.38.22.77.34,1.15.41,1.39.81,2.78,1.22,4.17C75.71,44,75.72,44,75.74,44Z"/><path class="cls-2" d="M40.32,39.4a.3.3,0,0,0,.17-.12c.18-.18.37-.35.56-.51a2.66,2.66,0,0,1,1.82-.55c.26,0,.35.09.37.34s0,.69,0,1a1.88,1.88,0,0,1,0,.41.29.29,0,0,1-.29.27,2.81,2.81,0,0,1-.41,0,4.72,4.72,0,0,0-1.94.28c-.14.05-.14.15-.14.26v4.79a2.26,2.26,0,0,1,0,.26.23.23,0,0,1-.24.22H38.46a.25.25,0,0,1-.24-.24,1.93,1.93,0,0,1,0-.24V38.8c0-.46,0-.51.51-.51h1a.4.4,0,0,1,.45.34C40.2,38.88,40.26,39.13,40.32,39.4Z"/><path class="cls-2" d="M87,49.52a8.52,8.52,0,0,1,2,.23,3.52,3.52,0,0,1,.51.19.66.66,0,0,1,.41.54,4.1,4.1,0,0,1,0,.86,11.1,11.1,0,0,1-1.53,4.82,6.67,6.67,0,0,1-1.16,1.43.83.83,0,0,1-.32.2.23.23,0,0,1-.32-.24,1.09,1.09,0,0,1,.07-.3c.35-.94.69-1.87,1-2.84a9.59,9.59,0,0,0,.34-1.61,3,3,0,0,0,0-.6.78.78,0,0,0-.56-.73,3.88,3.88,0,0,0-1-.18,15.67,15.67,0,0,0-2.74.12l-1.21.15a.3.3,0,0,1-.32-.12.34.34,0,0,1,0-.36,1,1,0,0,1,.3-.28,6.85,6.85,0,0,1,2.45-1A11.71,11.71,0,0,1,87,49.52Z"/><path class="cls-3" d="M82.8,42.19v3.6a.28.28,0,0,1-.31.29c-.54,0-1.07,0-1.6,0a.27.27,0,0,1-.31-.28,1.21,1.21,0,0,1,0-.19V38.7c0-.31.09-.4.4-.4H82.4c.31,0,.4.09.4.4v3.49Z"/><path class="cls-2" d="M44.21,42.17V38.63c0-.24.1-.33.34-.34H46.1c.23,0,.3.07.32.3a2.26,2.26,0,0,1,0,.26V45.5c0,.11,0,.22,0,.33a.25.25,0,0,1-.24.23H44.48a.29.29,0,0,1-.27-.26,1.93,1.93,0,0,1,0-.24C44.21,44.45,44.21,43.31,44.21,42.17Z"/><path class="cls-2" d="M45.36,34.72a1.25,1.25,0,0,1,.47.07,1.13,1.13,0,0,1,.77,1.26,1.12,1.12,0,0,1-1,1,1.83,1.83,0,0,1-.66,0,1.12,1.12,0,0,1-1-1.25A1.16,1.16,0,0,1,45.36,34.72Z"/><path class="cls-3" d="M81.69,34.72a1.21,1.21,0,0,1,.59.1,1.05,1.05,0,0,1,.68.93,1.18,1.18,0,0,1-1.34,1.35,1.86,1.86,0,0,1-.33,0,1.13,1.13,0,0,1-.87-1.32,1.12,1.12,0,0,1,1.06-1A.74.74,0,0,1,81.69,34.72Z"/><path class="cls-2" d="M36.74,41.36a4.55,4.55,0,0,0-.39-1.5,2.89,2.89,0,0,0-2-1.71,3.55,3.55,0,0,0-3,.67.8.8,0,0,1-.21.15s0,0,0,0-.05-.2-.08-.3a.4.4,0,0,0-.45-.34c-.3,0-.61,0-.91,0a.7.7,0,0,0-.6.2c0,3.5,0,7,0,10.48a.56.56,0,0,0,.56.24h1.08c.63,0,.63,0,.63-.62V45.76c0-.07,0-.15,0-.21a3.35,3.35,0,0,0,1.73.68,3,3,0,0,0,2.35-.72,3.7,3.7,0,0,0,1-1.67A6.15,6.15,0,0,0,36.74,41.36Zm-2.39,2.06a1.54,1.54,0,0,1-.46.8,1.42,1.42,0,0,1-.91.35,2.74,2.74,0,0,1-1.46-.32.28.28,0,0,1-.17-.28V42.16c0-.59,0-1.19,0-1.79a.3.3,0,0,1,.2-.31,2.68,2.68,0,0,1,1.71-.26,1.22,1.22,0,0,1,1,.72,2.79,2.79,0,0,1,.26,1A5,5,0,0,1,34.35,43.42Z"/><path class="cls-3" d="M108.91,41.58v0a.14.14,0,0,1,0-.15v-.08h0v-.1h0s0,0,0,0a3.47,3.47,0,0,0-.11-.56,3.36,3.36,0,0,0-2.55-2.53,5.28,5.28,0,0,0-1.9-.07,3.28,3.28,0,0,0-2.79,2.2,5.32,5.32,0,0,0,0,3.77,3.16,3.16,0,0,0,2.35,2.09,4.9,4.9,0,0,0,1.87.1,3.42,3.42,0,0,0,3.11-3.21h0v-.14c0-.06,0-.11,0-.15v0a.08.08,0,0,1,0,0V41.6S108.91,41.59,108.91,41.58Zm-2.4,1.89a1.83,1.83,0,0,1-.28.58,1.29,1.29,0,0,1-1,.54,1.76,1.76,0,0,1-.56,0,1.29,1.29,0,0,1-.94-.75,2.86,2.86,0,0,1-.27-1,5.41,5.41,0,0,1,.08-1.75,2.24,2.24,0,0,1,.27-.66,1.3,1.3,0,0,1,1-.62,1.77,1.77,0,0,1,.56,0,1.29,1.29,0,0,1,.91.71,3,3,0,0,1,.29,1.13,4.73,4.73,0,0,1,0,.53A3.66,3.66,0,0,1,106.51,43.47Z"/><path class="cls-3" d="M91.42,34.79H90c-.38,0-.45.07-.45.45v3.23c0,.07,0,.14,0,.21s-.14-.07-.21-.11a3.36,3.36,0,0,0-3.22-.21,3.13,3.13,0,0,0-1.55,1.78,5.66,5.66,0,0,0-.35,2.3,4.76,4.76,0,0,0,.5,2.13,2.79,2.79,0,0,0,1.72,1.52,3.24,3.24,0,0,0,3-.51c.07,0,.11-.11.2-.13a1.42,1.42,0,0,1,.11.35.35.35,0,0,0,.35.27h1.3c.28,0,.36-.09.37-.38V35.17C91.8,34.86,91.72,34.79,91.42,34.79Zm-1.83,7.34V44a.26.26,0,0,1-.16.28,2.42,2.42,0,0,1-1.56.3,1.37,1.37,0,0,1-1.07-.74,2.77,2.77,0,0,1-.28-1,5.11,5.11,0,0,1,.12-1.87,2.3,2.3,0,0,1,.2-.49,1.29,1.29,0,0,1,1-.67,3,3,0,0,1,1.53.27.28.28,0,0,1,.18.29c0,.62,0,1.22,0,1.82Z"/><path class="cls-2" d="M63.8,42.82a6.6,6.6,0,0,0,2.26,0,3.66,3.66,0,0,0,1.25-.4,1.84,1.84,0,0,0,.92-1.11,2.38,2.38,0,0,0-1.5-3,4.59,4.59,0,0,0-2-.19,3.41,3.41,0,0,0-3.08,2.56,5.49,5.49,0,0,0,0,3.11,3.1,3.1,0,0,0,2.56,2.39,6.61,6.61,0,0,0,3.46-.29.46.46,0,0,0,.34-.49c0-.24,0-.49,0-.74s-.12-.39-.41-.32l-.86.19a4.9,4.9,0,0,1-1.87,0,1.67,1.67,0,0,1-1.35-1.8Zm-.25-1.52a2.72,2.72,0,0,1,.19-.69,1.49,1.49,0,0,1,1.56-.94,1.63,1.63,0,0,1,.53.12.76.76,0,0,1,.46.63,1.15,1.15,0,0,1,0,.52.89.89,0,0,1-.76.58,2,2,0,0,1-.64,0,7.81,7.81,0,0,1-1.18-.09C63.53,41.46,63.53,41.46,63.55,41.3Z"/><path class="cls-3" d="M97.44,42.92a4.1,4.1,0,0,0,1.68-.43,1.84,1.84,0,0,0,1-1.32,2.72,2.72,0,0,0,0-1.1,2.32,2.32,0,0,0-1.64-1.75A4.43,4.43,0,0,0,97,38.13a3.48,3.48,0,0,0-3.47,2.57,5.52,5.52,0,0,0,0,3.34,3,3,0,0,0,2.29,2.13,5.39,5.39,0,0,0,1.49.15,6.6,6.6,0,0,0,2.15-.4.44.44,0,0,0,.36-.52v-.72c0-.29-.13-.39-.42-.32l-.65.16a5,5,0,0,1-2,.07,1.57,1.57,0,0,1-1.32-1.2,4.1,4.1,0,0,1-.11-.61.32.32,0,0,1,.14,0A7.84,7.84,0,0,0,97.44,42.92Zm-2.08-1.59a2.48,2.48,0,0,1,.4-1.09,1.49,1.49,0,0,1,1.45-.57l.14,0a.89.89,0,0,1,.74,1.21.88.88,0,0,1-.8.62,2.47,2.47,0,0,1-.61,0,9.71,9.71,0,0,1-1.21-.1c-.09,0-.13,0-.11-.14Z"/></g></g></svg>