<svg id="Layer_2" data-name="Layer 2" xmlns="http://www.w3.org/2000/svg" viewBox="0 0 138 90"><defs><style>.cls-1,.cls-2{fill:#fff;}.cls-2{font-size:12px;font-family:Heebo-Bold, Heebo;font-weight:700;}</style></defs><path class="cls-1" d="M66.72,58.71a4.22,4.22,0,0,1-4.21-4.22v-19a4.22,4.22,0,0,1,4.21-4.22h4.56a4.22,4.22,0,0,1,4.21,4.22v19a4.22,4.22,0,0,1-4.21,4.22H66.72m0,2.67h4.56a6.91,6.91,0,0,0,6.88-6.89v-19a6.91,6.91,0,0,0-6.88-6.89H66.72a6.91,6.91,0,0,0-6.88,6.89v19a6.91,6.91,0,0,0,6.88,6.89Z"/><circle class="cls-1" cx="69" cy="35.62" r="2.73"/><text class="cls-2" transform="translate(50.64 78.33)">Mouse</text></svg>