<svg id="Layer_2" data-name="Layer 2" xmlns="http://www.w3.org/2000/svg" viewBox="0 0 138 90"><defs><style>.cls-1{fill:#fff;}</style></defs><path class="cls-1" d="M41.76,47.41a3.41,3.41,0,0,1-1.29,1.46,3.81,3.81,0,0,1-3.81,0,3.37,3.37,0,0,1-1.3-1.46,5.11,5.11,0,0,1-.46-2.22v-.37a5.16,5.16,0,0,1,.46-2.23,3.41,3.41,0,0,1,1.29-1.46,3.81,3.81,0,0,1,3.81,0,3.37,3.37,0,0,1,1.3,1.46,5,5,0,0,1,.46,2.23v.37A5,5,0,0,1,41.76,47.41Zm-1.87-4.59a1.63,1.63,0,0,0-2.66,0,3.58,3.58,0,0,0-.47,2v.38a3.59,3.59,0,0,0,.47,2,1.54,1.54,0,0,0,1.34.7,1.51,1.51,0,0,0,1.32-.7,3.59,3.59,0,0,0,.47-2v-.38A3.55,3.55,0,0,0,39.89,42.82Z"/><path class="cls-1" d="M48.59,49.27l-3.31-5.51v5.51H43.44V40.73h1.84l3.31,5.51V40.73h1.84v8.54Z"/><path class="cls-1" d="M59.58,41.25A3.51,3.51,0,0,1,61,42.69a4.45,4.45,0,0,1,.5,2.12v.38a4.4,4.4,0,0,1-.5,2.12,3.57,3.57,0,0,1-1.39,1.44,4,4,0,0,1-2,.52H54.89V40.73h2.66A4,4,0,0,1,59.58,41.25Zm0,3.55a3.09,3.09,0,0,0-.52-1.92,1.84,1.84,0,0,0-1.53-.66h-.82v5.56h.81a1.84,1.84,0,0,0,1.53-.66,3.08,3.08,0,0,0,.53-1.93Z"/><path class="cls-1" d="M68.45,47.78v1.49H62.69V40.73h5.75v1.49H64.53v1.94h3.33V45.6H64.53v2.18Z"/><path class="cls-1" d="M78.47,49.27H76.63V47.06L76.81,43l-2.24,6.29H73.32L71.09,43l.18,4.08v2.21H69.43V40.73h2.41L74,46.82l2.11-6.09h2.41Z"/><path class="cls-1" d="M84.78,47.57h-3l-.56,1.7h-2l3.16-8.54h1.71l3.18,8.54h-2Zm-.49-1.49-1-3.11-1,3.11Z"/><path class="cls-1" d="M93.21,49.27l-3.32-5.51v5.51H88.05V40.73h1.84l3.32,5.51V40.73H95v8.54Z"/><path class="cls-1" d="M101.21,41.25a3.55,3.55,0,0,1,1.38,1.44,4.34,4.34,0,0,1,.5,2.12v.38a4.29,4.29,0,0,1-.5,2.12,3.55,3.55,0,0,1-1.38,1.44,4.07,4.07,0,0,1-2,.52H96.52V40.73h2.66A4,4,0,0,1,101.21,41.25Zm0,3.55a3,3,0,0,0-.52-1.92,1.82,1.82,0,0,0-1.52-.66h-.82v5.56h.81a1.86,1.86,0,0,0,1.53-.66,3.08,3.08,0,0,0,.52-1.93Z"/></svg>