<svg id="Layer_2" data-name="Layer 2" xmlns="http://www.w3.org/2000/svg" viewBox="0 0 138 90"><defs><style>.cls-1{fill:#fff;}</style></defs><path class="cls-1" d="M62.72,47.57h-3l-.56,1.7h-2l3.17-8.54h1.71l3.18,8.54h-2Zm-.49-1.49L61.2,43l-1,3.11Z"/><path class="cls-1" d="M70.68,41.25a3.57,3.57,0,0,1,1.39,1.44,4.45,4.45,0,0,1,.5,2.12v.38a4.4,4.4,0,0,1-.5,2.12,3.57,3.57,0,0,1-1.39,1.44,4,4,0,0,1-2,.52H66V40.73h2.66A4,4,0,0,1,70.68,41.25Zm0,3.55a3,3,0,0,0-.53-1.92,1.81,1.81,0,0,0-1.52-.66h-.82v5.56h.81a1.84,1.84,0,0,0,1.53-.66,3.08,3.08,0,0,0,.53-1.93Z"/><path class="cls-1" d="M78.47,41.25a3.51,3.51,0,0,1,1.39,1.44,4.45,4.45,0,0,1,.5,2.12v.38a4.4,4.4,0,0,1-.5,2.12,3.51,3.51,0,0,1-1.39,1.44,4,4,0,0,1-2,.52H73.78V40.73h2.66A4,4,0,0,1,78.47,41.25Zm0,3.55A3,3,0,0,0,78,42.88a1.84,1.84,0,0,0-1.53-.66h-.82v5.56h.81A1.84,1.84,0,0,0,78,47.12a3.08,3.08,0,0,0,.53-1.93Z"/></svg>