<svg id="Layer_2" data-name="Layer 2" xmlns="http://www.w3.org/2000/svg" viewBox="0 0 138 90"><defs><style>.cls-1{font-size:12px;font-family:Heebo-Bold, Heebo;font-weight:700;}.cls-1,.cls-2{fill:#fff;}.cls-3{fill:#009245;}</style></defs><text class="cls-1" transform="translate(51.87 78.33)">Bass -</text><path class="cls-2" d="M57.12,60.75a2.5,2.5,0,0,1-2.5-2.5V31.75a2.5,2.5,0,0,1,5,0v26.5A2.49,2.49,0,0,1,57.12,60.75Z"/><path class="cls-2" d="M80.88,60.75a2.49,2.49,0,0,1-2.5-2.5V31.75a2.5,2.5,0,0,1,5,0v26.5A2.5,2.5,0,0,1,80.88,60.75Z"/><path class="cls-2" d="M69.12,60.75a2.5,2.5,0,0,1-2.5-2.5V31.75a2.5,2.5,0,0,1,5,0v26.5A2.49,2.49,0,0,1,69.12,60.75Z"/><circle class="cls-3" cx="57.12" cy="51.99" r="3.87"/></svg>