<svg id="Layer_2" data-name="Layer 2" xmlns="http://www.w3.org/2000/svg" viewBox="0 0 138 90"><defs><style>.cls-1,.cls-2{fill:#fff;}.cls-2{font-size:12px;font-family:Heebo-Bold, Heebo;font-weight:700;}.cls-3{letter-spacing:-0.04em;}</style></defs><path class="cls-1" d="M55.29,42.72a4.22,4.22,0,0,1,4.22-4.21h19a4.22,4.22,0,0,1,4.22,4.21v4.56a4.22,4.22,0,0,1-4.22,4.21h-19a4.22,4.22,0,0,1-4.22-4.21V42.72m-2.67,0v4.56a6.91,6.91,0,0,0,6.89,6.88h19a6.91,6.91,0,0,0,6.89-6.88V42.72a6.91,6.91,0,0,0-6.89-6.88h-19a6.91,6.91,0,0,0-6.89,6.88Z"/><circle class="cls-1" cx="78.38" cy="45" r="2.73"/><circle class="cls-1" cx="59.97" cy="45" r="2.73"/><rect class="cls-1" x="65.27" y="43.25" width="7.46" height="3.17"/><text class="cls-2" transform="translate(53.3 78.33)"><tspan class="cls-3">T</tspan><tspan x="7" y="0">uner</tspan></text></svg>