<svg id="Layer_2" data-name="Layer 2" xmlns="http://www.w3.org/2000/svg" viewBox="0 0 138 90"><defs><style>.cls-1{fill:#009245;}.cls-2{font-size:12px;fill:#fff;font-family:Heebo-Bold, Heebo;font-weight:700;}.cls-3{letter-spacing:-0.01em;}.cls-4{fill:#f2f2f2;}</style></defs><path class="cls-1" d="M84.75,56.88a2.5,2.5,0,0,1-2.5,2.5H55.75a2.5,2.5,0,0,1,0-5h26.5A2.49,2.49,0,0,1,84.75,56.88Z"/><text class="cls-2" transform="translate(32.5 78.33)"><tspan class="cls-3">P</tspan><tspan x="7.68" y="0">op-up Menu</tspan></text><path class="cls-4" d="M67.58,30.94h0l-.12.12L57.82,39.7a2,2,0,0,0,0,2.85l.12.12a2,2,0,0,0,2.85,0l5.77-4.77V54.4h5V38l5.67,4.66a2,2,0,0,0,2.85,0l.12-.11a2,2,0,0,0,0-2.86l-9.55-8.55-.08-.09-.12-.12A2,2,0,0,0,67.58,30.94Z"/></svg>