<svg id="Layer_2" data-name="Layer 2" xmlns="http://www.w3.org/2000/svg" viewBox="0 0 138 90"><defs><style>.cls-1{fill:#fff;}.cls-2{opacity:0.7;}.cls-3{fill:#f2f2f2;}.cls-4{opacity:0.4;}</style></defs><path class="cls-1" d="M69.37,51.49a2.79,2.79,0,0,1-1.52-.44,1.57,1.57,0,0,1-.71-1.34l0-6.12,0-3.3A1.57,1.57,0,0,1,67.85,39a2.83,2.83,0,0,1,3.51.38l4.32,4.31a1.93,1.93,0,0,1,0,2.72l-4.32,4.31A2.81,2.81,0,0,1,69.37,51.49Zm-.59-1.79a1.18,1.18,0,0,0,1.42-.18l4.32-4.32a.28.28,0,0,0,0-.4L70.2,40.48a1.18,1.18,0,0,0-1.42-.18l0,6.11Z"/><g class="cls-2"><path class="cls-3" d="M87.11,59.17H50.58a7.21,7.21,0,0,1-7.2-7.2V35.44a7.21,7.21,0,0,1,7.2-7.2H87.11a7.21,7.21,0,0,1,7.2,7.2V52A7.21,7.21,0,0,1,87.11,59.17ZM50.58,32.24a3.2,3.2,0,0,0-3.2,3.2V52a3.2,3.2,0,0,0,3.2,3.2H87.11a3.2,3.2,0,0,0,3.2-3.2V35.44a3.21,3.21,0,0,0-3.2-3.2Z"/></g><g class="cls-4"><path class="cls-3" d="M84.88,57.52H48.34a7.21,7.21,0,0,1-7.19-7.2V33.79a7.21,7.21,0,0,1,7.19-7.2H84.88a7.21,7.21,0,0,1,7.2,7.2V50.32A7.21,7.21,0,0,1,84.88,57.52ZM48.34,30.59a3.19,3.19,0,0,0-3.19,3.2V50.32a3.2,3.2,0,0,0,3.19,3.2H84.88a3.21,3.21,0,0,0,3.2-3.2V33.79a3.2,3.2,0,0,0-3.2-3.2Z"/></g><path class="cls-3" d="M89.66,61.52H53.12a7.21,7.21,0,0,1-7.2-7.2V37.79a7.21,7.21,0,0,1,7.2-7.2H89.66a7.21,7.21,0,0,1,7.19,7.2V54.32A7.21,7.21,0,0,1,89.66,61.52ZM53.12,34.59a3.2,3.2,0,0,0-3.2,3.2V54.32a3.21,3.21,0,0,0,3.2,3.2H89.66a3.2,3.2,0,0,0,3.19-3.2V37.79a3.19,3.19,0,0,0-3.19-3.2Z"/></svg>