<svg id="Layer_2" data-name="Layer 2" xmlns="http://www.w3.org/2000/svg" viewBox="0 0 138 90"><defs><style>.cls-1{fill:#fff;}</style></defs><path class="cls-1" d="M64.35,25.39A19.61,19.61,0,1,1,44.74,45,19.63,19.63,0,0,1,64.35,25.39m0-2.39a22,22,0,1,0,22,22,22,22,0,0,0-22-22Z"/><circle class="cls-1" cx="64.35" cy="36.69" r="4.44"/><circle class="cls-1" cx="64.35" cy="53.52" r="4.44"/><circle class="cls-1" cx="72.76" cy="45.1" r="4.44"/><circle class="cls-1" cx="55.93" cy="45.1" r="4.44"/><path class="cls-1" d="M61.92,65.7A1.09,1.09,0,0,1,63,64.61H94.56a1.09,1.09,0,0,1,0,2.18H63A1.09,1.09,0,0,1,61.92,65.7Z"/></svg>