<svg id="Layer_2" data-name="Layer 2" xmlns="http://www.w3.org/2000/svg" viewBox="0 0 138 90"><defs><style>.cls-1{fill:#fff;}.cls-2{fill:#f2f2f2;}</style></defs><path class="cls-1" d="M54.39,60.76a2.5,2.5,0,0,1-2.5-2.5V31.76a2.5,2.5,0,0,1,5,0v26.5A2.5,2.5,0,0,1,54.39,60.76Z"/><path class="cls-2" d="M69.32,60.86a6.82,6.82,0,0,1-3.69-1.07,3.82,3.82,0,0,1-1.74-3.28L64,41.56l-.06-8.07a3.83,3.83,0,0,1,1.73-3.28,6.92,6.92,0,0,1,8.58.93L84.73,41.68a4.68,4.68,0,0,1,0,6.64L74.2,58.86A6.89,6.89,0,0,1,69.32,60.86Zm-1.43-4.37A2.91,2.91,0,0,0,71.37,56L81.91,45.5a.74.74,0,0,0,0-1L71.37,34a2.91,2.91,0,0,0-3.48-.46L68,48.45Z"/></svg>