<svg id="Layer_2" data-name="Layer 2" xmlns="http://www.w3.org/2000/svg" viewBox="0 0 138 90"><defs><style>.cls-1{fill:none;stroke:#f2f2f2;stroke-linecap:round;stroke-miterlimit:10;stroke-width:2.55px;}.cls-2,.cls-3{fill:#fff;}.cls-3{font-size:12px;font-family:Heebo-Bold, Heebo;font-weight:700;}</style></defs><path class="cls-1" d="M87.79,46.14,84.1,38.52a5.52,5.52,0,0,0-2-2.25L82,36.21a5.86,5.86,0,0,0-.55-.3,3.66,3.66,0,0,0-.46-.18l-.13,0a5.65,5.65,0,0,0-.71-.17,5.9,5.9,0,0,0-.59-.06h-21a5.26,5.26,0,0,0-4.69,3.06l-3.69,7.62a6,6,0,0,0,2.22,7.75h0a5.1,5.1,0,0,0,7.14-2.41l.29-.6H78.14l.29.6a5.1,5.1,0,0,0,7.14,2.41h0A6,6,0,0,0,87.79,46.14Z"/><path class="cls-2" d="M62.67,42.91H60.5V40.74a.58.58,0,0,0-.59-.59.59.59,0,0,0-.59.59v2.17H57.15a.59.59,0,0,0,0,1.18h2.17v2.17a.59.59,0,0,0,.59.59.58.58,0,0,0,.59-.59V44.09h2.17a.59.59,0,1,0,0-1.18Z"/><circle class="cls-2" cx="78.76" cy="43.5" r="2.73"/><text class="cls-3" transform="translate(53.26 78.33)">Game</text></svg>