<svg id="Layer_2" data-name="Layer 2" xmlns="http://www.w3.org/2000/svg" viewBox="0 0 138 90"><defs><style>.cls-1{fill:#fff;}</style></defs><path class="cls-1" d="M61.43,49.21H59.58V47l.19-4.07-2.24,6.28H56.28l-2.23-6.28L54.23,47v2.21H52.39V40.68H54.8l2.11,6.08L59,40.68h2.41Z"/><path class="cls-1" d="M69.43,46.28A3.12,3.12,0,0,1,69,47.94a2.64,2.64,0,0,1-1.16,1,3.84,3.84,0,0,1-1.71.35A4,4,0,0,1,64.41,49a2.7,2.7,0,0,1-1.16-1,3.12,3.12,0,0,1-.41-1.66v-5.6h1.84v5.6c0,1,.49,1.56,1.46,1.56a1.42,1.42,0,0,0,1.08-.38,1.65,1.65,0,0,0,.37-1.18v-5.6h1.84Z"/><path class="cls-1" d="M76.36,47.72v1.49H70.83V40.68h1.84v7Z"/><path class="cls-1" d="M82.58,42.16H80v7.05H78.14V42.16H75.58V40.68h7Z"/><path class="cls-1" d="M83.66,49.21V40.68h1.83v8.53Z"/></svg>