<svg id="Layer_2" data-name="Layer 2" xmlns="http://www.w3.org/2000/svg" viewBox="0 0 138 90"><defs><style>.cls-1,.cls-2{fill:#fff;}.cls-2{font-size:12px;font-family:Heebo-Bold, Heebo;font-weight:700;}.cls-3{fill:none;stroke:#fff;stroke-linecap:round;stroke-miterlimit:10;stroke-width:1.42px;}</style></defs><path class="cls-1" d="M79.44,42.93H75.78A1.91,1.91,0,0,1,73.87,41V37.51a1.9,1.9,0,0,1,1.91-1.91h3.66a1.91,1.91,0,0,1,1.92,1.91V41A1.92,1.92,0,0,1,79.44,42.93Zm-3.66-6.18a.76.76,0,0,0-.76.76V41a.76.76,0,0,0,.76.76h3.66a.77.77,0,0,0,.77-.76V37.51a.77.77,0,0,0-.77-.76Z"/><text class="cls-2" transform="translate(57.5 78.33)">USB</text><path class="cls-1" d="M69.13,60.75a2.49,2.49,0,0,1-2.5-2.5V31.75a2.5,2.5,0,0,1,5,0v26.5A2.5,2.5,0,0,1,69.13,60.75Z"/><path class="cls-1" d="M73.21,29.19,70,26a1.44,1.44,0,0,0-2,0l-3.2,3.21a2.1,2.1,0,0,0-.29,2.6,1.17,1.17,0,0,0,1,.53l2.45,0,4.55,0a1.17,1.17,0,0,0,1-.53,2,2,0,0,0,.32-1.12A2.1,2.1,0,0,0,73.21,29.19Z"/><path class="cls-1" d="M60.19,46.82a3.89,3.89,0,1,1,3.88-3.89A3.89,3.89,0,0,1,60.19,46.82Zm0-6.75a2.86,2.86,0,1,0,2.86,2.86A2.87,2.87,0,0,0,60.19,40.07Z"/><polyline class="cls-3" points="77.61 43.13 77.61 46.31 71.34 54"/><polyline class="cls-3" points="60.19 46.82 60.19 49.31 69 57.44"/></svg>