<svg id="Layer_2" data-name="Layer 2" xmlns="http://www.w3.org/2000/svg" viewBox="0 0 138 90"><defs><style>.cls-1{fill:#fff;}.cls-2{fill:#f2f2f2;}</style></defs><path class="cls-1" d="M62.9,47.78v1.49H57.14V40.73H62.9v1.49H59v1.94h3.34V45.6H59v2.18Z"/><path class="cls-1" d="M68.52,40.73h2.11L68.17,45l2.52,4.31H68.56l-1.58-3-1.59,3H63.26L65.78,45l-2.45-4.23h2.1L67,43.63Z"/><path class="cls-1" d="M71.65,49.27V40.73h1.83v8.54Z"/><path class="cls-1" d="M81.56,42.22H79v7.05H77.12V42.22H74.56V40.73h7Z"/><path class="cls-2" d="M82.27,60.46H55.73a7.19,7.19,0,0,1-7.19-7.19V36.73a7.19,7.19,0,0,1,7.19-7.19H82.27a7.19,7.19,0,0,1,7.19,7.19V53.27A7.19,7.19,0,0,1,82.27,60.46ZM55.73,33.54a3.19,3.19,0,0,0-3.19,3.19V53.27a3.19,3.19,0,0,0,3.19,3.19H82.27a3.19,3.19,0,0,0,3.19-3.19V36.73a3.19,3.19,0,0,0-3.19-3.19Z"/></svg>