<svg id="Layer_2" data-name="Layer 2" xmlns="http://www.w3.org/2000/svg" viewBox="0 0 138 90"><defs><style>.cls-1{fill:#fff;}</style></defs><path class="cls-1" d="M60.43,49.27H58.58V47.06L58.76,43l-2.23,6.29H55.28L53,43l.19,4.08v2.21H51.39V40.73h2.4l2.11,6.09L58,40.73h2.42Z"/><path class="cls-1" d="M67.66,47.78v1.49H61.9V40.73h5.76v1.49H63.74v1.94h3.34V45.6H63.74v2.18Z"/><path class="cls-1" d="M73.34,41.25a3.55,3.55,0,0,1,1.38,1.44,4.34,4.34,0,0,1,.5,2.12v.38a4.29,4.29,0,0,1-.5,2.12,3.55,3.55,0,0,1-1.38,1.44,4.07,4.07,0,0,1-2,.52H68.65V40.73h2.66A4,4,0,0,1,73.34,41.25Zm0,3.55a3,3,0,0,0-.52-1.92,1.82,1.82,0,0,0-1.52-.66h-.82v5.56h.81a1.86,1.86,0,0,0,1.53-.66,3.08,3.08,0,0,0,.52-1.93Z"/><path class="cls-1" d="M76.56,49.27V40.73h1.83v8.54Z"/><path class="cls-1" d="M84.81,47.57h-3l-.56,1.7h-2l3.17-8.54h1.71l3.18,8.54h-2Zm-.49-1.49-1-3.11-1,3.11Z"/></svg>