<svg id="Layer_2" data-name="Layer 2" xmlns="http://www.w3.org/2000/svg" viewBox="0 0 138 90"><defs><style>.cls-1{fill:#fff;}</style></defs><path class="cls-1" d="M57.54,48a2.81,2.81,0,0,1-1.18,1,4,4,0,0,1-1.79.38,3.48,3.48,0,0,1-1.9-.51,3.21,3.21,0,0,1-1.22-1.42A5.13,5.13,0,0,1,51,45.27v-.52a5.12,5.12,0,0,1,.44-2.19,3.26,3.26,0,0,1,1.24-1.44,3.44,3.44,0,0,1,1.88-.51,3.86,3.86,0,0,1,1.8.39,2.93,2.93,0,0,1,1.16,1.07A3.67,3.67,0,0,1,58,43.65H56.2a1.81,1.81,0,0,0-.42-1.15,1.64,1.64,0,0,0-1.2-.38,1.43,1.43,0,0,0-1.28.63,3.64,3.64,0,0,0-.42,2v.54a5.47,5.47,0,0,0,.17,1.48,1.69,1.69,0,0,0,.54.85,1.56,1.56,0,0,0,1,.28,1.68,1.68,0,0,0,1.18-.36,1.58,1.58,0,0,0,.44-1.11H58A3.19,3.19,0,0,1,57.54,48Z"/><path class="cls-1" d="M64.67,47.79v1.48H59.14V40.74H61v7Z"/><path class="cls-1" d="M71.4,47.79v1.48H65.64V40.74h5.75v1.49H67.48v1.94h3.33V45.6H67.48v2.19Z"/><path class="cls-1" d="M77.22,47.58h-3l-.55,1.69h-2l3.16-8.53h1.72l3.18,8.53h-2Zm-.49-1.49L75.7,43l-1,3.11Z"/><path class="cls-1" d="M87.2,49.18v.09h-2l-1.57-3.08H82.33v3.08H80.49V40.74h3.22a4.54,4.54,0,0,1,1.7.29,2.29,2.29,0,0,1,1.09.88,2.44,2.44,0,0,1,.39,1.41,2.59,2.59,0,0,1-.4,1.48,2.55,2.55,0,0,1-1.12.91ZM82.33,44.7h1.38a1.39,1.39,0,0,0,1-.33,1.22,1.22,0,0,0,.34-.9,1.25,1.25,0,0,0-.34-.92,1.38,1.38,0,0,0-1-.32H82.33Z"/></svg>