<svg id="Layer_2" data-name="Layer 2" xmlns="http://www.w3.org/2000/svg" viewBox="0 0 138 90"><defs><style>.cls-1{font-size:12px;fill:#fff;font-family:Heebo-Bold, Heebo;font-weight:700;}.cls-2{fill:#f2f2f2;}</style></defs><text class="cls-1" transform="translate(65.55 78.33)">2</text><text class="cls-1" transform="translate(51.88 49.39)">VIDEO</text><path class="cls-2" d="M87.27,60.46H50.73a7.19,7.19,0,0,1-7.19-7.19V36.73a7.19,7.19,0,0,1,7.19-7.19H87.27a7.19,7.19,0,0,1,7.19,7.19V53.27A7.19,7.19,0,0,1,87.27,60.46ZM50.73,33.54a3.19,3.19,0,0,0-3.19,3.19V53.27a3.19,3.19,0,0,0,3.19,3.19H87.27a3.19,3.19,0,0,0,3.19-3.19V36.73a3.19,3.19,0,0,0-3.19-3.19Z"/></svg>