<svg id="Layer_2" data-name="Layer 2" xmlns="http://www.w3.org/2000/svg" viewBox="0 0 138 90"><defs><style>.cls-1,.cls-2{fill:#fff;}.cls-2{font-size:12px;font-family:Heebo-Bold, Heebo;font-weight:700;}</style></defs><circle class="cls-1" cx="69" cy="35.62" r="2.73"/><path class="cls-1" d="M71.41,30.89a3.91,3.91,0,0,1,3.9,3.9v8.42c0,3.75-2.45,14.2-4.23,15.9H66.92c-1.78-1.7-4.23-12.15-4.23-15.9V34.79a3.91,3.91,0,0,1,3.9-3.9h4.82m0-2.27H66.59a6.18,6.18,0,0,0-6.16,6.17v8.42c0,3.39,2.77,18.17,6.16,18.17h4.82c3.39,0,6.16-14.78,6.16-18.17V34.79a6.18,6.18,0,0,0-6.16-6.17Z"/><text class="cls-2" transform="translate(41.31 78.33)">Bookmark</text></svg>