<svg id="Layer_2" data-name="Layer 2" xmlns="http://www.w3.org/2000/svg" viewBox="0 0 138 90"><defs><style>.cls-1{font-size:12px;font-family:Heebo-Bold, Heebo;font-weight:700;}.cls-1,.cls-2{fill:#fff;}</style></defs><text class="cls-1" transform="translate(57.32 78.33)">DVR</text><path class="cls-2" d="M55.29,42.72a4.22,4.22,0,0,1,4.22-4.21h19a4.22,4.22,0,0,1,4.22,4.21v4.56a4.22,4.22,0,0,1-4.22,4.21h-19a4.22,4.22,0,0,1-4.22-4.21V42.72m-2.67,0v4.56a6.91,6.91,0,0,0,6.89,6.88h19a6.91,6.91,0,0,0,6.89-6.88V42.72a6.91,6.91,0,0,0-6.89-6.88h-19a6.91,6.91,0,0,0-6.89,6.88Z"/><circle class="cls-2" cx="78.38" cy="45" r="2.73"/></svg>