<svg id="Layer_2" data-name="Layer 2" xmlns="http://www.w3.org/2000/svg" viewBox="0 0 138 90"><defs><style>.cls-1{fill:#fff;}.cls-2{fill:#f2f2f2;}</style></defs><path class="cls-1" d="M83.61,29.24a2.5,2.5,0,0,1,2.5,2.5v26.5a2.5,2.5,0,0,1-5,0V31.74A2.5,2.5,0,0,1,83.61,29.24Z"/><path class="cls-2" d="M68.68,29.14a6.82,6.82,0,0,1,3.69,1.07,3.82,3.82,0,0,1,1.74,3.28l-.06,14.95.06,8.07a3.83,3.83,0,0,1-1.73,3.28,6.92,6.92,0,0,1-8.58-.93L53.27,48.32a4.68,4.68,0,0,1,0-6.64L63.8,31.14A6.89,6.89,0,0,1,68.68,29.14Zm1.43,4.37a2.91,2.91,0,0,0-3.48.46L56.09,44.5a.74.74,0,0,0,0,1L66.63,56a2.91,2.91,0,0,0,3.48.46l-.06-14.94Z"/></svg>