<svg id="Layer_2" data-name="Layer 2" xmlns="http://www.w3.org/2000/svg" viewBox="0 0 138 90"><defs><style>.cls-1{fill:#fff;}</style></defs><path class="cls-1" d="M40,49.27l-3.32-5.5v5.5H34.81V40.74h1.84L40,46.24v-5.5H41.8v8.53Z"/><path class="cls-1" d="M49.88,47.42a3.38,3.38,0,0,1-1.28,1.46,3.83,3.83,0,0,1-3.82,0,3.47,3.47,0,0,1-1.29-1.46A5,5,0,0,1,43,45.19v-.37a5,5,0,0,1,.46-2.23,3.47,3.47,0,0,1,1.29-1.46,3.81,3.81,0,0,1,3.81,0,3.47,3.47,0,0,1,1.29,1.46,5,5,0,0,1,.46,2.23v.37A5,5,0,0,1,49.88,47.42ZM48,42.82a1.63,1.63,0,0,0-2.66,0,3.53,3.53,0,0,0-.46,2v.38a3.49,3.49,0,0,0,.47,2,1.61,1.61,0,0,0,2.66,0,3.57,3.57,0,0,0,.46-2v-.38A3.55,3.55,0,0,0,48,42.82Z"/><path class="cls-1" d="M58.51,40.74l-2.95,8.53H53.62l-2.93-8.53h2l1.87,6.34,1.87-6.34Z"/><path class="cls-1" d="M63.32,47.58h-3l-.55,1.69h-2l3.16-8.53h1.71l3.19,8.53h-2Zm-.5-1.49L61.8,43l-1,3.11Z"/><path class="cls-1" d="M67.89,45.09a3,3,0,0,1-1-.86A2,2,0,0,1,66.52,43a2.05,2.05,0,0,1,.4-1.25,2.55,2.55,0,0,1,1.13-.83,4.26,4.26,0,0,1,1.65-.3,3.84,3.84,0,0,1,1.64.33,2.55,2.55,0,0,1,1.11.93,2.48,2.48,0,0,1,.39,1.38H71a1.11,1.11,0,0,0-.34-.86,1.46,1.46,0,0,0-1-.32,1.94,1.94,0,0,0-.72.12,1,1,0,0,0-.44.34.81.81,0,0,0-.15.48.78.78,0,0,0,.4.66,5.2,5.2,0,0,0,1.26.54,5.35,5.35,0,0,1,2.13,1.1,2.2,2.2,0,0,1,.7,1.69,2.13,2.13,0,0,1-.38,1.28,2.31,2.31,0,0,1-1.08.81,4.33,4.33,0,0,1-1.64.29,4.79,4.79,0,0,1-1.7-.31,3,3,0,0,1-1.29-1,2.48,2.48,0,0,1-.5-1.57H68.1a1.26,1.26,0,0,0,.42,1.06,2,2,0,0,0,1.22.32,1.47,1.47,0,0,0,.94-.25A.79.79,0,0,0,71,47a.92.92,0,0,0-.13-.51,1.12,1.12,0,0,0-.47-.39,6.22,6.22,0,0,0-1-.41A8.81,8.81,0,0,1,67.89,45.09Z"/><path class="cls-1" d="M80.27,48a2.83,2.83,0,0,1-1.19,1,4,4,0,0,1-1.78.38,3.46,3.46,0,0,1-1.9-.51,3.17,3.17,0,0,1-1.23-1.42,5.28,5.28,0,0,1-.42-2.19v-.52a5,5,0,0,1,.44-2.19,3.2,3.2,0,0,1,1.24-1.44,3.4,3.4,0,0,1,1.87-.51,3.86,3.86,0,0,1,1.8.39,2.86,2.86,0,0,1,1.16,1.07,3.68,3.68,0,0,1,.5,1.58H78.93a1.76,1.76,0,0,0-.43-1.15,1.64,1.64,0,0,0-1.2-.38,1.41,1.41,0,0,0-1.27.63,3.64,3.64,0,0,0-.42,2v.54a5.47,5.47,0,0,0,.17,1.48,1.57,1.57,0,0,0,.54.85,1.54,1.54,0,0,0,1,.28,1.7,1.7,0,0,0,1.18-.36,1.62,1.62,0,0,0,.44-1.11h1.83A3.29,3.29,0,0,1,80.27,48Z"/><path class="cls-1" d="M88.47,47.42a3.47,3.47,0,0,1-1.29,1.46,3.81,3.81,0,0,1-3.81,0,3.43,3.43,0,0,1-1.3-1.46,5,5,0,0,1-.46-2.23v-.37a5,5,0,0,1,.46-2.23,3.47,3.47,0,0,1,1.29-1.46,3.81,3.81,0,0,1,3.81,0,3.34,3.34,0,0,1,1.29,1.46,5,5,0,0,1,.47,2.23v.37A5.19,5.19,0,0,1,88.47,47.42Zm-1.87-4.6a1.53,1.53,0,0,0-1.33-.69,1.49,1.49,0,0,0-1.33.69,3.52,3.52,0,0,0-.47,2v.38a3.57,3.57,0,0,0,.47,2,1.51,1.51,0,0,0,1.34.7,1.49,1.49,0,0,0,1.32-.7,3.57,3.57,0,0,0,.46-2v-.38A3.55,3.55,0,0,0,86.6,42.82Z"/><path class="cls-1" d="M95.22,41.1a2.69,2.69,0,0,1,1.12,1,2.78,2.78,0,0,1,.39,1.47A2.71,2.71,0,0,1,96.35,45a2.56,2.56,0,0,1-1.12.95,4.2,4.2,0,0,1-1.73.33H92v3H90.15V40.74H93.5A3.86,3.86,0,0,1,95.22,41.1Zm-.68,3.39a1.21,1.21,0,0,0,.33-.89,1.58,1.58,0,0,0-.14-.69,1.16,1.16,0,0,0-.46-.5,1.51,1.51,0,0,0-.77-.18H92v2.59H93.5A1.46,1.46,0,0,0,94.54,44.49Z"/><path class="cls-1" d="M103.67,47.79v1.48H97.91V40.74h5.75v1.49H99.75v1.94h3.33V45.6H99.75v2.19Z"/></svg>